<?xml version="1.0" standalone="no"?><!DOCTYPE svg PUBLIC "-//W3C//DTD SVG 1.1//EN" "http://www.w3.org/Graphics/SVG/1.1/DTD/svg11.dtd"><svg t="1594119461362" class="icon" viewBox="0 0 1024 1024" version="1.1" xmlns="http://www.w3.org/2000/svg" p-id="1027" xmlns:xlink="http://www.w3.org/1999/xlink" width="200" height="200"><defs><style type="text/css"></style></defs><path d="M271.328 610.592a316.544 316.544 0 0 1 93.216-225.12 315.712 315.712 0 0 1 192.192-91.456c-56.032-100.256-123.2-199.968-168.704-264.672A64.256 64.256 0 0 0 282.944 29.312C191.392 159.488 12.352 431.136 12.352 563.968c0 178.432 144.704 323.168 323.168 323.168 27.648 0 54.496-3.456 80.096-10.016a317.088 317.088 0 0 1-51.04-41.472 316.032 316.032 0 0 1-93.248-225.056zM222.016 746.88a44.704 44.704 0 0 1-63.232 5.408c-127.36-107.264-83.456-265.792-81.504-272.512a44.832 44.832 0 1 1 86.272 24.672c-1.376 5.152-28.896 110.144 53.056 179.168 18.944 16.032 21.376 44.352 5.408 63.264z" fill="#d81e06" p-id="1028"></path><path d="M574.24 718.624c-69.984-12.704-87.552-80.256-88.288-83.392a27.008 27.008 0 0 0-52.512 12.416c0.992 4.32 25.76 104.96 131.2 124.096a26.976 26.976 0 0 0 9.6-53.12z" fill="#d81e06" p-id="1029"></path><path d="M989.024 895.648l-102.944-102.976a40.448 40.448 0 0 0-57.184 0l-27.968-27.968c74.624-102.176 65.856-246.752-26.4-339.072a259.712 259.712 0 0 0-184.928-76.576 259.584 259.584 0 0 0-184.896 76.576 259.776 259.776 0 0 0-76.608 184.96 259.328 259.328 0 0 0 76.608 184.928 259.68 259.68 0 0 0 184.896 76.608c56.192 0 109.664-17.6 154.112-50.208l27.936 28a40.448 40.448 0 0 0 0 57.184l102.944 102.912a43.136 43.136 0 0 0 60.992 0l53.408-53.44a43.04 43.04 0 0 0 0.032-60.928z m-271.712-157.28a179.552 179.552 0 0 1-127.712 52.864 179.648 179.648 0 0 1-127.712-52.864 179.552 179.552 0 0 1-52.896-127.744 179.52 179.52 0 0 1 52.896-127.68c1.792-1.824 3.648-3.552 5.536-5.344a179.552 179.552 0 0 1 122.176-47.584c48.224 0 93.568 18.848 127.712 52.928 6.592 6.592 12.384 13.696 17.728 20.96 51.84 70.656 46.08 170.624-17.728 234.464z" fill="#d81e06" p-id="1030"></path><path d="M465.312 560.704m-26.432 0a26.432 26.432 0 1 0 52.864 0 26.432 26.432 0 1 0-52.864 0Z" fill="#d81e06" p-id="1031"></path></svg>